# xmcd
#
# Track frame offsets: 
#        150
#        21511
#        37530
#        58890
#        76525
#        95510
#        117369
#        138676
#        151250
#        169580
#        184585
#
# Disc length: 2714 seconds
#
# Revision: 3
# Processed by: cddbd v1.5.2PL0 Copyright (c) Steve Scherf et al.
# Submitted via: ExactAudioCopy v0.99pb4
#
DISCID=820a980b
DTITLE=Buddy Miller - Midnight and Lonesome
DYEAR=2002
DGENRE=Country
TTITLE0=The Price Of Love
TTITLE1=Wild Card
TTITLE2=I Can't Get Over You
TTITLE3=Midnight And Lonesome
TTITLE4=When It Comes To You
TTITLE5=Water When The Well Is Dry
TTITLE6=A Showman's Life
TTITLE7=Little Bitty Kiss
TTITLE8=Please Send Me Someone To Love
TTITLE9=Oh Fait Pitie d'Amour (Love Have Mercy On Me)
TTITLE10=Quecreek
EXTD=YEAR: 2002
EXTT0=
EXTT1=
EXTT2=
EXTT3=
EXTT4=
EXTT5=
EXTT6=
EXTT7=
EXTT8=
EXTT9=
EXTT10=
PLAYORDER=
